<?xml version="1.0" encoding="UTF-8" standalone="no"?>
<svg
   xmlns:dc="http://purl.org/dc/elements/1.1/"
   xmlns:cc="http://creativecommons.org/ns#"
   xmlns:rdf="http://www.w3.org/1999/02/22-rdf-syntax-ns#"
   xmlns:svg="http://www.w3.org/2000/svg"
   xmlns="http://www.w3.org/2000/svg"
   viewBox="0 0 793.70081 1122.5197"
   height="1122.5197"
   width="793.70081"
   xml:space="preserve"
   id="svg2"
   version="1.1"><metadata
     id="metadata8"><rdf:RDF><cc:Work
         rdf:about=""><dc:format>image/svg+xml</dc:format><dc:type
           rdf:resource="http://purl.org/dc/dcmitype/StillImage" /></cc:Work></rdf:RDF></metadata><defs
     id="defs6"><clipPath
       id="clipPath18"
       clipPathUnits="userSpaceOnUse"><path
         style="clip-rule:evenodd"
         id="path16"
         d="M -0.2021,-0.015 H 595.0735 V 841.8748 H -0.2021 Z" /></clipPath></defs><g
     transform="matrix(1.3333333,0,0,-1.3333333,0,1122.5197)"
     id="g10"><g
       id="g12"><g
         clip-path="url(#clipPath18)"
         id="g14"><g
           id="g20"><g
             id="g22"><path
               id="path24"
               style="fill:#100f0d;fill-opacity:1;fill-rule:evenodd;stroke:none"
               d="m 283.286,487.9828 7.6822,-37.6191 H 288 279.445 l -4.365,0.2174 z m -60.5843,-88.3941 41.7279,-0.1086 3.492,17.0699 h 30.5541 l 3.3174,-16.7436 41.7283,-0.3263 -28.1098,135.1463 h -64.7748 z" /><path
               id="path26"
               style="fill:#100f0d;fill-opacity:1;fill-rule:evenodd;stroke:none"
               d="m 120.3888,399.4801 h 100.7413 v 41.9681 l -60.5846,0.4351 v 92.7431 h -40.1567 z" /><path
               id="path28"
               style="fill:#100f0d;fill-opacity:1;fill-rule:evenodd;stroke:none"
               d="m 454.0399,413.2882 c 4.8887,2.3919 18.1579,1.8485 24.4435,2.1745 12.92,0.6525 15.1897,3.0444 19.7291,-2.9356 z m -71.5838,55.8851 c 17.2848,6.5236 19.7291,-58.3858 3.8409,-63.6047 -9.7773,-3.2618 -13.9674,17.9399 -14.3167,29.0299 -0.5238,12.7211 2.4444,31.5306 10.4758,34.5748 z M 368.663,429.4885 c -1.9205,1.0871 -7.333,12.1771 -11.8724,15.0041 0.8731,-19.2444 -2.9681,-17.8311 -17.1105,-17.07 0.1746,-3.3704 0.6985,-6.0885 1.9208,-8.3718 l 8.5549,-2.0659 -8.0314,-1.7396 c 0.8731,-11.7423 3.492,-7.8282 24.6181,-11.1989 19.5545,-3.0441 9.7772,-5.0011 19.9037,-8.263 20.9515,-6.5236 141.073,2.1745 148.2313,10.0026 -1.9205,3.5881 -5.936,1.6311 -8.9042,4.4578 3.1425,2.0659 5.2379,4.0229 7.6822,7.3933 6.9837,9.6767 3.8409,3.4793 7.8568,7.1759 4.0155,3.697 4.3648,20.8755 3.8409,28.4862 -1.9204,-7.3933 -2.7935,-15.6563 -8.206,-18.9181 -7.1583,-0.1088 -3.6663,6.0885 -11.3485,7.6107 -10.4757,2.0659 -38.2365,-0.7611 -48.7122,-5.5451 -5.4122,-2.5004 -20.253,-13.8081 -23.7447,-14.243 -1.5716,-0.2174 -11.8727,2.7182 -15.539,3.0445 -5.7617,0.6522 -11.5234,-0.9786 -15.539,2.2833 -1.0476,9.3503 6.9838,13.373 7.333,19.3529 -8.7299,-0.4348 -16.412,-9.2415 -26.3639,-6.7407 -2.2697,6.4148 -7.1583,43.164 -21.1261,39.0325 -5.4124,-1.5222 -8.9042,-12.3948 -10.4757,-19.897 -2.2697,-10.4377 -2.2697,-18.8096 -2.9681,-29.7907" /><path
               id="path30"
               style="fill:#100f0d;fill-opacity:1;fill-rule:evenodd;stroke:none"
               d="m 49.3285,407.8519 6.6348,-41.8595 c 33.6968,0 57.2672,2.0659 57.2672,47.9481 0,40.1198 0.5238,80.6746 0,120.6859 H 76.9147 c 0.6982,-26.6381 0,-53.8195 0,-80.1309 0,-37.2932 4.8886,-46.861 -27.5862,-46.6436" /><path
               id="path32"
               style="fill:#100f0d;fill-opacity:1;fill-rule:evenodd;stroke:none"
               d="m 320.4748,516.9039 c 1.2221,0.7611 5.5871,5.3277 6.9838,6.741 6.8093,7.176 17.2848,14.7867 27.0623,14.2433 20.7768,-1.0874 16.5864,-27.834 27.7605,-30.661 10.4758,-2.6092 36.1412,2.5008 48.0138,3.4793 16.9356,1.4136 34.2205,1.3048 51.3309,0.9785 -2.7935,8.0459 -26.3639,24.0284 -31.6017,26.638 -18.1579,9.0241 -77.3456,7.5019 -97.5986,3.4793 -11.3488,-2.2833 -21.3006,-10.5466 -30.0305,-19.027 -2.0951,-2.0659 -2.2697,-1.7396 -1.9205,-5.8714" /><path
               id="path34"
               style="fill:#100f0d;fill-opacity:1;fill-rule:evenodd;stroke:none"
               d="m 321.5222,515.0557 1.9208,-12.0685 c 10.9993,-0.3263 20.0784,0.326 31.0779,-0.9785 7.8568,-0.9786 20.7768,-4.7841 26.8875,-4.7841 -1.0474,0.5437 -2.2697,1.8482 -3.4917,2.7182 -1.397,1.0873 -3.1428,1.8482 -4.3651,2.6093 -3.4917,2.6095 -6.1107,22.5062 -15.8879,30.4432 -11.8726,9.5681 -31.7764,-14.243 -36.1415,-17.9396" /><path
               id="path36"
               style="fill:#100f0d;fill-opacity:1;fill-rule:evenodd;stroke:none"
               d="m 468.0077,475.1532 c 6.9837,-16.2 19.2055,-17.0699 31.2525,-16.7437 6.9837,0.1086 14.4913,0.1086 20.7768,2.1745 8.3806,2.827 8.206,6.306 8.5553,17.9396 -8.7299,-4.0226 -14.4916,-8.0456 -26.364,-7.1759 2.4444,3.697 2.7936,0.87 3.4918,5.7626 -5.5868,2.9355 -32.4746,1.4133 -37.7124,-1.9571" /><path
               id="path38"
               style="fill:#2976be;fill-opacity:1;fill-rule:evenodd;stroke:none"
               d="m 393.6302,385.2369 23.9193,0.1088 v -23.7022 l -23.9193,0.4349 z m -3.1427,6.5236 c -5.7617,-2.0659 -4.1905,-9.0241 -4.1905,-16.5263 0,-5.6537 -1.3966,-15.7651 1.9208,-19.027 2.4443,-2.6095 28.459,-2.5007 32.6491,-1.3047 5.2379,1.6307 4.1905,9.4592 4.0159,16.7436 0,5.7626 1.222,16.5266 -1.9208,19.2447 -2.4443,2.0656 -28.9825,2.0656 -32.4745,0.8697" /><path
               id="path40"
               style="fill:#2976be;fill-opacity:1;fill-rule:evenodd;stroke:none"
               d="m 190.5761,385.2369 v -23.5934 h -24.5923 v 24.1784 h 24.5923 z m -27.237,6.4148 c -5.4125,-1.8482 -4.1902,-8.9153 -4.1902,-16.4175 0.1746,-5.7625 -1.0477,-15.7651 1.9205,-19.027 2.6189,-2.6095 28.6336,-2.6095 32.824,-1.3047 5.2379,1.6307 4.0156,9.1329 4.0156,16.7436 0,5.7626 1.2223,16.4177 -2.0951,19.2447 -2.6189,2.2831 -28.2844,2.1745 -32.4748,0.7609" /><path
               id="path42"
               style="fill:#2976be;fill-opacity:1;fill-rule:evenodd;stroke:none"
               d="m 262.7226,386.6635 h 17.1386 c 2.175,0 3.9543,-2.2371 3.9543,-4.9711 v -1.927 c 0,-2.7343 -1.7793,-4.9714 -3.9543,-4.9714 h -17.1386 z m 16.5478,-17.8441 c 5.9361,0.2175 10.3011,-0.7611 10.6504,7.2845 0.3489,6.4148 0.8727,13.6996 -3.1428,15.5478 -2.6189,1.1962 -26.8878,0.9788 -30.9033,0.4351 v -37.5106 l 7.1583,-0.1086 v 14.243 c 8.0314,0.8699 6.8091,0.5437 14.1423,-7.937 6.8091,-7.7196 3.3171,-6.4148 15.3644,-6.306 -1.7462,3.0441 -9.6029,9.5678 -13.2693,14.3518" /><path
               id="path44"
               style="fill:#2976be;fill-opacity:1;fill-rule:evenodd;stroke:none"
               d="m 216.741,386.6635 h 17.1385 c 2.1751,0 3.9544,-2.2371 3.9544,-4.9711 v -1.927 c 0,-2.7343 -1.7793,-4.9714 -3.9544,-4.9714 H 216.741 Z m 16.7853,-17.8441 c 5.9363,0.2175 10.1265,-0.7611 10.6504,7.2845 0.3492,6.4148 0.6984,13.6996 -3.3171,15.5478 -2.4446,1.1962 -26.7132,0.9788 -30.729,0.4351 v -37.5106 l 7.1586,-0.1086 v 14.243 c 4.3648,0.4348 6.4599,0.9785 8.9042,-1.9571 11.8726,-14.678 9.2537,-12.3947 20.4276,-12.2859 -1.0474,1.9571 -1.5713,2.2833 -3.3171,4.1315 -1.3969,1.196 -2.0954,1.7396 -3.3174,3.0444 -2.6189,2.7182 -4.5394,4.5664 -6.4602,7.1759" /><path
               id="path46"
               style="fill:#2976be;fill-opacity:1;fill-rule:evenodd;stroke:none"
               d="m 444.5306,387.148 h 17.2723 c 2.175,0 3.9546,-2.2371 3.9546,-4.9714 v -2.8528 c 0,-2.7343 -1.7796,-4.9714 -3.9546,-4.9714 h -17.2723 z m -6.7278,-5.6078 v -26.7466 l 7.1583,-0.326 v 14.243 l 7.333,0.1088 c 3.1428,-4.3492 5.4125,-5.9799 8.3806,-9.7854 4.8886,-6.306 5.0633,-4.7838 13.7928,-4.4578 l -2.9678,3.5881 c -1.5716,1.6308 -2.2697,2.0659 -3.6667,3.5878 -2.2697,2.1747 -5.2378,5.2189 -6.6344,6.9585 5.4124,0.4348 9.9518,-0.6523 10.6503,6.6322 0.5235,5.7626 0.6982,13.917 -2.6189,15.9829 -2.9682,1.8482 -27.0624,1.3048 -31.4272,0.7611 z" /><path
               id="path48"
               style="fill:#2976be;fill-opacity:1;fill-rule:evenodd;stroke:none"
               d="M 140.2926,361.7521 H 120.738 v 23.0499 0.5437 h 19.7292 v -5.4167 h 7.3326 c -0.0155,14.5233 -1.4952,12.3752 -19.5542,12.3752 -15.7136,0 -14.8405,0.6522 -14.8405,-18.9184 0,-19.4619 -0.8731,-18.9182 14.8405,-18.9182 17.4206,0 19.8045,-2.1818 19.5732,12.5816 h -7.3516 v -5.2971 z" /><path
               id="path50"
               style="fill:#2976be;fill-opacity:1;fill-rule:evenodd;stroke:none"
               d="m 323.6176,371.7425 v 4.8195 h -14.2673 v 2.7485 c -0.1443,1.2617 -0.2166,2.6671 0,3.9364 v 2.8066 h 25.2567 l -0.1647,6.2507 -31.9507,-0.3263 v -37.5103 l 32.4745,0.4349 -0.1746,6.5236 -12.4835,0.0542 h -12.9577 v 10.2622 z" /><path
               id="path52"
               style="fill:#2976be;fill-opacity:1;fill-rule:evenodd;stroke:none"
               d="m 503.7996,369.5805 -13.0947,0.2175 6.4602,14.6777 z m -16.5864,-7.0673 h 20.0784 l 3.4917,-8.0456 8.3806,0.1086 -17.8086,37.728 -7.333,-0.1089 -17.4594,-37.6191 h 7.1583 z" /><path
               id="path54"
               style="fill:#100f0d;fill-opacity:1;fill-rule:evenodd;stroke:none"
               d="m 456.1353,469.0647 -3.8412,8.1544 c -6.4599,-3.3707 -8.5553,-4.3492 -16.9356,-2.5007 -5.4125,1.1959 -12.0473,3.3704 -12.5711,9.3504 4.5397,6.3062 11.698,1.5222 16.9359,3.3703 -10.4757,3.3707 -23.2212,5.0015 -34.9192,4.6755 5.2379,-26.5292 29.1575,-21.9628 51.3312,-23.0499" /><path
               id="path56"
               style="fill:#2976be;fill-opacity:1;fill-rule:evenodd;stroke:none"
               d="m 356.0922,354.4676 h 7.3329 l 0.1746,31.0955 h 14.317 l -0.1747,6.7411 h -36.1411 v -6.6322 h 14.3166 z" /><path
               id="path58"
               style="fill:#100f0d;fill-opacity:1;fill-rule:evenodd;stroke:none"
               d="m 463.119,485.9172 c 1.222,-5.2188 1.222,-5.1103 5.5871,-3.9143 12.7454,3.8055 41.0298,6.9585 53.0768,4.3492 4.1904,-0.9786 4.365,-2.827 6.6347,-3.5881 -0.5238,7.937 -2.4443,6.8499 -12.0472,6.6325 -5.936,-0.1089 -11.8724,-0.2177 -17.8087,-0.4351 -12.0469,-0.326 -23.5703,-2.5008 -35.4427,-3.0442" /><path
               id="path60"
               style="fill:#100f0d;fill-opacity:1;fill-rule:evenodd;stroke:none"
               d="m 532.2586,489.2876 c 1.0477,1.0874 1.0477,1.3048 2.7935,1.9571 3.8413,-10.9815 -3.1427,-11.3074 0,-19.5707 3.8413,5.0014 4.5394,18.5921 -0.6984,22.8325 -1.7459,-1.6311 -1.5713,-1.6311 -2.0951,-5.2189" /></g><text
             id="text64"
             style="font-variant:normal;font-weight:bold;font-size:70.46800232px;font-family:Magneto;-inkscape-font-specification:Magneto-Bold;writing-mode:lr-tb;fill:#ed1c24;fill-opacity:1;fill-rule:nonzero;stroke:none"
             transform="matrix(0.8249,0,0,-1,127.1188,298.7787)"><tspan
               id="tspan62"
               y="0"
               x="0 67.860687 110.91663 178.28404 204.49814 251.21841 292.16034 328.099 369.04092">Seminovos</tspan></text>
</g></g></g></g></svg>